# xmcd CD database file
#
# Track frame offsets:
#	150
#	11985
#	25257
#	38029
#	56611
#	71171
#	87754
#	101301
#	114663
#	130099
#	148565
#	166694
#
# Disc length: 2283 seconds
#
# Revision: 0
# Processed by: cddbd v1.5.1PL2 Copyright (c) Steve Scherf et al.
# Submitted via: CDex 1.51
#
DISCID=9908e90c
DTITLE=Jay Munly - Galvanized Yankee
DYEAR=1900
DGENRE=Country
TTITLE0=Funeral Blues
TTITLE1=All Men Are Divine
TTITLE2=Pretty Saro
TTITLE3=Death Ain't You Got No Shame
TTITLE4=The Why And The Wherefore
TTITLE5=Who Will Care For Mother Now?
TTITLE6=A Long Time Ago
TTITLE7=Cluck Old Hen
TTITLE8=Virgin Of Manhattan
TTITLE9=Marching Along
TTITLE10=Parting Glass
TTITLE11=Math Made Easy
EXTD=
EXTT0=
EXTT1=
EXTT2=
EXTT3=
EXTT4=
EXTT5=
EXTT6=
EXTT7=
EXTT8=
EXTT9=
EXTT10=
EXTT11=
PLAYORDER=
